<svg xmlns="http://www.w3.org/2000/svg" width="111" height="18">
    <path fill="#FFF" fill-rule="evenodd" d="M106.202 2.227v15.12h-2.16V2.227h-3.84V.547h9.841v1.68h-3.841zm-8.529 8.892a3.087 3.087 0 0 1-1.416 1.008c-.568.2-1.244.3-2.028.3-.368 0-.784-.024-1.248-.072a11.498 11.498 0 0 1-1.152-.168v5.16h-2.16V.787c.608-.176 1.22-.3 1.836-.372a17.315 17.315 0 0 1 2.004-.108c.96 0 1.776.1 2.448.3.672.2 1.216.532 1.632.996.416.464.72 1.08.912 1.848.192.768.288 1.72.288 2.856 0 1.168-.092 2.144-.276 2.928-.184.784-.464 1.412-.84 1.884zm-1.224-6.972c-.12-.576-.308-1.032-.564-1.368a2.04 2.04 0 0 0-.972-.708c-.392-.136-.86-.204-1.404-.204h-1.68v8.88h1.68c.544 0 1.012-.068 1.404-.204a2.04 2.04 0 0 0 .972-.708c.256-.336.444-.792.564-1.368.12-.576.18-1.296.18-2.16 0-.864-.06-1.584-.18-2.16zm-12.161 8.88h-4.799l-1.081 4.32h-2.16l4.08-16.8h3.12l4.08 16.8h-2.16l-1.08-4.32zm-2.352-10.08h-.096l-1.992 8.4h4.08l-1.992-8.4zm-10.557 1.92h-.12l-3.48 10.32h-2.16l-3.48-10.32h-.12l-.72 12.48h-2.16l.96-16.8h2.64l3.912 11.52h.096L70.659.547h2.64l.96 16.8h-2.16l-.72-12.48zM55.58 15.787c-.448.656-.988 1.12-1.62 1.392-.632.272-1.356.408-2.172.408-.816 0-1.54-.136-2.172-.408-.632-.272-1.172-.736-1.62-1.392-.448-.656-.788-1.54-1.02-2.652-.232-1.112-.348-2.508-.348-4.188 0-1.68.116-3.076.348-4.188.232-1.112.572-1.996 1.02-2.652.448-.656.988-1.12 1.62-1.392.632-.272 1.356-.408 2.172-.408.816 0 1.54.136 2.172.408.632.272 1.172.736 1.62 1.392.448.656.788 1.54 1.02 2.652.232 1.112.348 2.508.348 4.188 0 1.68-.116 3.076-.348 4.188-.232 1.112-.572 1.996-1.02 2.652zM54.536 5.395c-.168-.928-.388-1.664-.66-2.208-.272-.544-.592-.92-.96-1.128a2.267 2.267 0 0 0-1.128-.312c-.384 0-.76.104-1.128.312-.368.208-.688.584-.96 1.128-.272.544-.492 1.28-.66 2.208-.168.928-.252 2.112-.252 3.552s.084 2.624.252 3.552c.168.928.388 1.664.66 2.208.272.544.592.92.96 1.128.368.208.744.312 1.128.312.384 0 .76-.104 1.128-.312.368-.208.688-.584.96-1.128.272-.544.492-1.28.66-2.208.168-.928.252-2.112.252-3.552s-.084-2.624-.252-3.552zM41.828 9.667h-5.04v7.68h-2.16V.547h2.16v7.44h5.04V.547h2.16v16.8h-2.16v-7.68zm-11.455 7.68l-3-7.2-3 7.2h-2.16l3.6-8.64-3.24-8.16h2.16l2.64 6.72 2.64-6.72h2.16l-3.24 8.16 3.6 8.64h-2.16zM12.296.547h8.16v1.68h-6v5.52h5.28v1.68h-5.28v6.24h6v1.68h-8.16V.547zm-5.875 16.8h-2.16V2.227H.421V.547h9.84v1.68h-3.84v15.12z"/>
</svg>
